<mxfile host="app.diagrams.net" modified="2021-03-01T18:01:06.472Z" agent="5.0 (Macintosh; Intel Mac OS X 10_15_7) AppleWebKit/537.36 (KHTML, like Gecko) Chrome/88.0.4324.192 Safari/537.36" etag="VP6cShYhpUBtDkQ-V7AS" version="14.3.2" type="github">
  <diagram id="ABtO5EIC5bWsqoUHbXiE" name="Page-1">
    <mxGraphModel dx="1426" dy="914" grid="1" gridSize="10" guides="1" tooltips="1" connect="1" arrows="1" fold="1" page="1" pageScale="1" pageWidth="827" pageHeight="1169" background="#ffffff" math="0" shadow="0">
      <root>
        <mxCell id="0" />
        <mxCell id="1" parent="0" />
        <mxCell id="WPTpdErRfbH3-2GL2D8E-8" value="" style="rounded=1;whiteSpace=wrap;html=1;arcSize=4;" vertex="1" parent="1">
          <mxGeometry x="280" y="130" width="690" height="560" as="geometry" />
        </mxCell>
        <mxCell id="WPTpdErRfbH3-2GL2D8E-2" style="edgeStyle=orthogonalEdgeStyle;rounded=0;orthogonalLoop=1;jettySize=auto;html=1;entryX=0;entryY=0.5;entryDx=0;entryDy=0;entryPerimeter=0;" edge="1" parent="1" source="XC7GoubBc9qKIFBL3Ict-1" target="QIKsp85mlr4RdP4AQZMU-4">
          <mxGeometry relative="1" as="geometry">
            <Array as="points">
              <mxPoint x="380" y="250" />
              <mxPoint x="505" y="250" />
              <mxPoint x="505" y="196" />
            </Array>
          </mxGeometry>
        </mxCell>
        <mxCell id="WPTpdErRfbH3-2GL2D8E-4" value="POST" style="edgeLabel;html=1;align=center;verticalAlign=middle;resizable=0;points=[];" vertex="1" connectable="0" parent="WPTpdErRfbH3-2GL2D8E-2">
          <mxGeometry x="-0.2316" y="2" relative="1" as="geometry">
            <mxPoint as="offset" />
          </mxGeometry>
        </mxCell>
        <mxCell id="WPTpdErRfbH3-2GL2D8E-3" style="edgeStyle=orthogonalEdgeStyle;rounded=0;orthogonalLoop=1;jettySize=auto;html=1;entryX=0;entryY=0.5;entryDx=0;entryDy=0;entryPerimeter=0;" edge="1" parent="1" source="XC7GoubBc9qKIFBL3Ict-1" target="QIKsp85mlr4RdP4AQZMU-11">
          <mxGeometry relative="1" as="geometry">
            <Array as="points">
              <mxPoint x="380" y="510" />
              <mxPoint x="507" y="510" />
              <mxPoint x="507" y="565" />
            </Array>
          </mxGeometry>
        </mxCell>
        <mxCell id="WPTpdErRfbH3-2GL2D8E-5" value="GET" style="edgeLabel;html=1;align=center;verticalAlign=middle;resizable=0;points=[];" vertex="1" connectable="0" parent="WPTpdErRfbH3-2GL2D8E-3">
          <mxGeometry x="-0.2019" y="2" relative="1" as="geometry">
            <mxPoint as="offset" />
          </mxGeometry>
        </mxCell>
        <mxCell id="XC7GoubBc9qKIFBL3Ict-1" value="Apigateway" style="outlineConnect=0;dashed=0;verticalLabelPosition=bottom;verticalAlign=top;align=center;html=1;shape=mxgraph.aws3.api_gateway;fillColor=#D9A741;gradientColor=none;" parent="1" vertex="1">
          <mxGeometry x="350" y="352.75" width="60" height="66.5" as="geometry" />
        </mxCell>
        <mxCell id="QIKsp85mlr4RdP4AQZMU-8" style="edgeStyle=orthogonalEdgeStyle;rounded=0;orthogonalLoop=1;jettySize=auto;html=1;" parent="1" source="QIKsp85mlr4RdP4AQZMU-3" target="QIKsp85mlr4RdP4AQZMU-7" edge="1">
          <mxGeometry relative="1" as="geometry" />
        </mxCell>
        <mxCell id="QIKsp85mlr4RdP4AQZMU-3" value="Sqs to save Dynamo" style="points=[[0,0,0],[0.25,0,0],[0.5,0,0],[0.75,0,0],[1,0,0],[0,1,0],[0.25,1,0],[0.5,1,0],[0.75,1,0],[1,1,0],[0,0.25,0],[0,0.5,0],[0,0.75,0],[1,0.25,0],[1,0.5,0],[1,0.75,0]];outlineConnect=0;fontColor=#232F3E;gradientColor=#F34482;gradientDirection=north;fillColor=#BC1356;strokeColor=#ffffff;dashed=0;verticalLabelPosition=bottom;verticalAlign=top;align=center;html=1;fontSize=12;fontStyle=0;aspect=fixed;shape=mxgraph.aws4.resourceIcon;resIcon=mxgraph.aws4.sqs;" parent="1" vertex="1">
          <mxGeometry x="595.5" y="347" width="78" height="78" as="geometry" />
        </mxCell>
        <mxCell id="QIKsp85mlr4RdP4AQZMU-6" style="edgeStyle=orthogonalEdgeStyle;rounded=0;orthogonalLoop=1;jettySize=auto;html=1;" parent="1" source="QIKsp85mlr4RdP4AQZMU-4" target="QIKsp85mlr4RdP4AQZMU-3" edge="1">
          <mxGeometry relative="1" as="geometry" />
        </mxCell>
        <mxCell id="QIKsp85mlr4RdP4AQZMU-4" value="Discover Mutant" style="outlineConnect=0;dashed=0;verticalLabelPosition=bottom;verticalAlign=top;align=center;html=1;shape=mxgraph.aws3.lambda_function;fillColor=#F58534;gradientColor=none;" parent="1" vertex="1">
          <mxGeometry x="600" y="160" width="69" height="72" as="geometry" />
        </mxCell>
        <mxCell id="QIKsp85mlr4RdP4AQZMU-10" style="edgeStyle=orthogonalEdgeStyle;rounded=0;orthogonalLoop=1;jettySize=auto;html=1;" parent="1" source="QIKsp85mlr4RdP4AQZMU-7" target="QIKsp85mlr4RdP4AQZMU-9" edge="1">
          <mxGeometry relative="1" as="geometry" />
        </mxCell>
        <mxCell id="QIKsp85mlr4RdP4AQZMU-7" value="Save ADN" style="outlineConnect=0;dashed=0;verticalLabelPosition=bottom;verticalAlign=top;align=center;html=1;shape=mxgraph.aws3.lambda_function;fillColor=#F58534;gradientColor=none;" parent="1" vertex="1">
          <mxGeometry x="844.5" y="350" width="69" height="72" as="geometry" />
        </mxCell>
        <mxCell id="QIKsp85mlr4RdP4AQZMU-9" value="Storage ADN&amp;nbsp;" style="outlineConnect=0;dashed=0;verticalLabelPosition=bottom;verticalAlign=top;align=center;html=1;shape=mxgraph.aws3.dynamo_db;fillColor=#2E73B8;gradientColor=none;" parent="1" vertex="1">
          <mxGeometry x="843" y="520" width="72" height="81" as="geometry" />
        </mxCell>
        <mxCell id="QIKsp85mlr4RdP4AQZMU-13" style="edgeStyle=orthogonalEdgeStyle;rounded=0;orthogonalLoop=1;jettySize=auto;html=1;startArrow=classic;startFill=1;" parent="1" source="QIKsp85mlr4RdP4AQZMU-11" target="QIKsp85mlr4RdP4AQZMU-9" edge="1">
          <mxGeometry relative="1" as="geometry">
            <Array as="points">
              <mxPoint x="690" y="561" />
              <mxPoint x="690" y="561" />
            </Array>
          </mxGeometry>
        </mxCell>
        <mxCell id="QIKsp85mlr4RdP4AQZMU-11" value="Get Stadistics ADN &lt;br&gt;Mutants" style="outlineConnect=0;dashed=0;verticalLabelPosition=bottom;verticalAlign=top;align=center;html=1;shape=mxgraph.aws3.lambda_function;fillColor=#F58534;gradientColor=none;" parent="1" vertex="1">
          <mxGeometry x="604.5" y="529" width="69" height="72" as="geometry" />
        </mxCell>
        <mxCell id="WPTpdErRfbH3-2GL2D8E-9" value="AWS" style="label;whiteSpace=wrap;html=1;image=img/clipart/Gear_128x128.png" vertex="1" parent="1">
          <mxGeometry x="310" y="100" width="120" height="50" as="geometry" />
        </mxCell>
        <mxCell id="WPTpdErRfbH3-2GL2D8E-13" style="edgeStyle=orthogonalEdgeStyle;rounded=0;orthogonalLoop=1;jettySize=auto;html=1;" edge="1" parent="1" source="WPTpdErRfbH3-2GL2D8E-10" target="XC7GoubBc9qKIFBL3Ict-1">
          <mxGeometry relative="1" as="geometry" />
        </mxCell>
        <mxCell id="WPTpdErRfbH3-2GL2D8E-14" value="HTTP" style="edgeLabel;html=1;align=center;verticalAlign=middle;resizable=0;points=[];" vertex="1" connectable="0" parent="WPTpdErRfbH3-2GL2D8E-13">
          <mxGeometry x="-0.0783" y="3" relative="1" as="geometry">
            <mxPoint as="offset" />
          </mxGeometry>
        </mxCell>
        <mxCell id="WPTpdErRfbH3-2GL2D8E-10" value="" style="points=[[0.35,0,0],[0.98,0.51,0],[1,0.71,0],[0.67,1,0],[0,0.795,0],[0,0.65,0]];verticalLabelPosition=bottom;html=1;verticalAlign=top;aspect=fixed;align=center;pointerEvents=1;shape=mxgraph.cisco19.user;fillColor=#005073;strokeColor=none;" vertex="1" parent="1">
          <mxGeometry x="150" y="361" width="50" height="50" as="geometry" />
        </mxCell>
        <mxCell id="WPTpdErRfbH3-2GL2D8E-12" value="" style="points=[[0.35,0,0],[0.98,0.51,0],[1,0.71,0],[0.67,1,0],[0,0.795,0],[0,0.65,0]];verticalLabelPosition=bottom;html=1;verticalAlign=top;aspect=fixed;align=center;pointerEvents=1;shape=mxgraph.cisco19.user;fillColor=#005073;strokeColor=none;" vertex="1" parent="1">
          <mxGeometry x="120" y="361" width="50" height="50" as="geometry" />
        </mxCell>
      </root>
    </mxGraphModel>
  </diagram>
</mxfile>
